<?xml version="1.0" encoding="UTF-8" standalone="no"?>
<!-- Created with Inkscape (http://www.inkscape.org/) -->

<svg
   xmlns:dc="http://purl.org/dc/elements/1.1/"
   xmlns:cc="http://creativecommons.org/ns#"
   xmlns:rdf="http://www.w3.org/1999/02/22-rdf-syntax-ns#"
   xmlns:svg="http://www.w3.org/2000/svg"
   xmlns="http://www.w3.org/2000/svg"
   xmlns:sodipodi="http://sodipodi.sourceforge.net/DTD/sodipodi-0.dtd"
   xmlns:inkscape="http://www.inkscape.org/namespaces/inkscape"
   width="210mm"
   height="297mm"
   viewBox="0 0 744.09448819 1052.3622047"
   id="svg2"
   version="1.1"
   inkscape:version="0.91 r13725"
   sodipodi:docname="favicon.svg">
  <defs
     id="defs4" />
  <sodipodi:namedview
     id="base"
     pagecolor="#ffffff"
     bordercolor="#666666"
     borderopacity="1.0"
     inkscape:pageopacity="0.0"
     inkscape:pageshadow="2"
     inkscape:zoom="1.979899"
     inkscape:cx="191.87193"
     inkscape:cy="769.77346"
     inkscape:document-units="px"
     inkscape:current-layer="layer1"
     showgrid="false"
     showguides="false"
     inkscape:window-width="1920"
     inkscape:window-height="1025"
     inkscape:window-x="0"
     inkscape:window-y="0"
     inkscape:window-maximized="1" />
  <metadata
     id="metadata7">
    <rdf:RDF>
      <cc:Work
         rdf:about="">
        <dc:format>image/svg+xml</dc:format>
        <dc:type
           rdf:resource="http://purl.org/dc/dcmitype/StillImage" />
        <dc:title></dc:title>
      </cc:Work>
    </rdf:RDF>
  </metadata>
  <g
     inkscape:label="Layer 1"
     inkscape:groupmode="layer"
     id="layer1">
    <rect
       style="opacity:1;fill:#ff7f2a;fill-opacity:1;fill-rule:nonzero;stroke:#ff7f2a;stroke-width:10;stroke-linecap:round;stroke-linejoin:round;stroke-miterlimit:4;stroke-dasharray:none;stroke-dashoffset:0;stroke-opacity:1"
       id="rect4227"
       width="133.84523"
       height="147.48227"
       x="166.1701"
       y="188.1767"
       rx="21.2132"
       ry="21.2132"
       inkscape:export-filename="/home/mes/favicon.png"
       inkscape:export-xdpi="150"
       inkscape:export-ydpi="150" />
    <path
       style="fill:#ff7f2a;fill-rule:evenodd;stroke:#ff7f2a;stroke-width:10.00000095;stroke-linecap:butt;stroke-linejoin:round;stroke-miterlimit:4;stroke-dasharray:none;stroke-opacity:1"
       d="m 190.71665,276.08096 -51.60864,59.45653 53.53793,0 z"
       id="path4229"
       inkscape:connector-curvature="0"
       inkscape:export-filename="/home/mes/favicon.png"
       inkscape:export-xdpi="150"
       inkscape:export-ydpi="150" />
    <path
       style="fill:#000000"
       d="m 187.09484,335.12148 c 0,-5.47862 5.23617,-13.74612 11.54832,-18.2339 4.56581,-3.24617 4.78241,-3.29565 7.73732,-1.76761 8.55791,4.42547 14.12065,5.64228 27.04447,5.91579 10.78869,0.22832 13.15252,0.5631 14.85641,2.10401 2.56847,2.3228 5.81348,8.62622 5.81348,11.29265 0,2.01253 -0.44858,2.03984 -33.5,2.03984 -27.4663,0 -33.5,-0.24329 -33.5,-1.35078 z m 31.23015,-25.19962 c -14.5851,-3.92667 -29.86627,-16.86184 -37.28735,-31.56292 -8.85301,-17.5377 -7.66305,-35.80651 3.3936,-52.10018 5.71555,-8.42274 8.95237,-10.02375 19.28584,-9.53926 7.03529,0.32986 9.24338,0.9261 16.5,4.45547 4.60777,2.24107 9.25096,4.74388 10.3182,5.56181 1.87422,1.4364 1.83325,1.54259 -1.20034,3.11132 -4.10998,2.12536 -7.08254,2.04927 -12.61664,-0.32292 -9.33129,-3.99985 -16.43478,-3.79671 -19.28382,0.55147 -8.67077,13.23328 20.35913,51.41168 45.92451,60.39718 3.12724,1.09914 6.84447,1.99843 8.26053,1.99843 3.28335,0 8.04878,-2.44608 8.85414,-4.5448 1.31862,-3.43628 0.46599,-10.20538 -2.00971,-15.9552 -1.42088,-3.3 -2.80253,-7.17797 -3.07035,-8.61772 -0.47899,-2.57504 2.01993,-8.88228 3.51914,-8.88228 0.9198,0 7.40036,11.01537 9.5046,16.15548 2.47617,6.04867 3.91034,14.80618 3.20021,19.54166 -1.24194,8.28185 -11.30867,16.18879 -25.2259,19.81377 -7.10683,1.85109 -21.07665,1.82058 -28.06666,-0.0613 z m 18.77054,-36.94877 c -0.94176,-1.13474 -1.02213,-3.57075 -0.33066,-10.02129 0.86853,-8.10213 0.80468,-8.6244 -1.29558,-10.59749 -2.02273,-1.90026 -2.93365,-2.01501 -10.79635,-1.36005 -9.38722,0.78195 -11.5781,0.0209 -11.5781,-4.022 0,-3.38469 1.69719,-4.21193 10.91253,-5.31892 5.89433,-0.70806 8.68067,-1.48968 9.30827,-2.61115 1.68472,-3.01043 5.12837,-5.54481 8.35718,-6.15054 6.46649,-1.21312 13.42698,4.61478 13.41828,11.2349 -0.005,3.617 -3.2339,8.96897 -5.92726,9.82381 -1.13795,0.36117 -2.08289,1.18885 -2.09988,1.83929 -0.12477,4.77911 -2.1576,16.20478 -3.08109,17.31752 -1.50431,1.81259 -5.33361,1.73805 -6.88734,-0.13408 z m 31.23314,-24.75083 c -0.55608,-0.6875 -1.3295,-4.05505 -1.71871,-7.48345 -0.88769,-7.81931 -4.05257,-14.16845 -8.26856,-16.58773 -1.78939,-1.02682 -6.4626,-2.2699 -10.38491,-2.7624 -8.13825,-1.02188 -9.86165,-2.05013 -9.86165,-5.88388 0,-4.81278 2.98807,-6.4124 10.53408,-5.63929 18.20342,1.86499 27.60985,11.17772 29.10036,28.81046 0.52268,6.18329 0.34648,7.67251 -1.07614,9.09513 -1.98834,1.98834 -6.86725,2.25276 -8.32447,0.45116 z m 22.96617,0.05 c -0.66,-0.66 -1.20665,-2.5725 -1.21478,-4.25 -0.026,-5.36391 -2.94061,-15.68635 -6.10608,-21.62538 -6.8481,-12.84834 -20.26863,-21.95645 -35.37914,-24.01076 -9.06378,-1.23224 -10.5,-2.03671 -10.5,-5.88132 0,-5.93105 4.83091,-7.18283 17.5,-4.53459 16.91257,3.53527 31.9563,15.24145 39.33177,30.60576 5.76396,12.00726 7.95254,25.96912 4.5968,29.32486 -1.85966,1.85966 -6.52955,2.07045 -8.22857,0.37143 z"
       id="path4200"
       inkscape:connector-curvature="0"
       inkscape:export-filename="/home/mes/favicon.png"
       inkscape:export-xdpi="150"
       inkscape:export-ydpi="150" />
  </g>
</svg>
